<svg xmlns="http://www.w3.org/2000/svg" width="16.098" height="17.887" viewBox="0 0 16.098 17.887">
  <g id="Layer_2" data-name="Layer 2" transform="translate(-3 -2)">
    <g id="calendar" transform="translate(3 2)">
      <path id="Path_39" data-name="Path 39" d="M16.415,3.789h-.894V2.894a.894.894,0,0,0-1.789,0v.894H8.366V2.894a.894.894,0,1,0-1.789,0v.894H5.683A2.683,2.683,0,0,0,3,6.472V17.2a2.683,2.683,0,0,0,2.683,2.683H16.415A2.683,2.683,0,0,0,19.1,17.2V6.472a2.683,2.683,0,0,0-2.683-2.683ZM5.683,5.577h.894v.894a.894.894,0,1,0,1.789,0V5.577h5.366v.894a.894.894,0,1,0,1.789,0V5.577h.894a.894.894,0,0,1,.894.894v3.577H4.789V6.472A.894.894,0,0,1,5.683,5.577ZM16.415,18.1H5.683a.894.894,0,0,1-.894-.894V11.838H17.309V17.2A.894.894,0,0,1,16.415,18.1Z" transform="translate(-3 -2)" fill="#002a47"/>
      <path id="Path_40" data-name="Path 40" d="M15.472,15H12.128a.894.894,0,0,0,0,1.789h3.344a.894.894,0,1,0,0-1.789Z" transform="translate(-3.845 -3.374)" fill="#002a47"/>
      <path id="Path_41" data-name="Path 41" d="M12.441,15h-.547a.894.894,0,0,0,0,1.789h.547a.894.894,0,1,0,0-1.789Z" transform="translate(-7.317 -3.374)" fill="#002a47"/>
    </g>
  </g>
</svg>
