<svg xmlns="http://www.w3.org/2000/svg" width="17.475" height="17.48" viewBox="0 0 17.475 17.48">
  <path id="_9be2df2ebb8eb1e9673e81278bae0615" data-name="9be2df2ebb8eb1e9673e81278bae0615" d="M8.97.264a2.4,2.4,0,0,0-1.655.7l-.891.891H4.235A2.4,2.4,0,0,0,1.845,4.243V6.431l-.885.893a2.4,2.4,0,0,0,0,3.373l.885.891v2.189a2.4,2.4,0,0,0,2.389,2.389H6.424l.891.885a2.4,2.4,0,0,0,3.373,0l.893-.885h2.187a2.4,2.4,0,0,0,2.389-2.389V11.588l.891-.891a2.4,2.4,0,0,0,0-3.373l-.891-.893V4.243a2.4,2.4,0,0,0-2.389-2.389H11.581L10.688.963A2.381,2.381,0,0,0,8.97.264Zm.024,1.59a.787.787,0,0,1,.569.234l1.126,1.121a.8.8,0,0,0,.564.234h2.516a.788.788,0,0,1,.8.8V6.76a.8.8,0,0,0,.236.564l1.121,1.126a.779.779,0,0,1,0,1.121L14.8,10.7a.8.8,0,0,0-.236.564v2.516a.788.788,0,0,1-.8.8H11.252a.8.8,0,0,0-.564.23L9.563,15.93a.779.779,0,0,1-1.121,0L7.315,14.8a.8.8,0,0,0-.564-.23H4.235a.788.788,0,0,1-.8-.8V11.26a.8.8,0,0,0-.23-.564L2.082,9.569a.779.779,0,0,1,0-1.121L3.207,7.323a.8.8,0,0,0,.23-.564V4.242a.788.788,0,0,1,.8-.8H6.751a.8.8,0,0,0,.563-.234L8.442,2.089a.8.8,0,0,1,.551-.234ZM11.37,5.82a.8.8,0,0,0-.547.241L6.053,10.832A.8.8,0,1,0,7.18,11.959L11.95,7.188a.795.795,0,0,0-.58-1.367Zm-4.752.01a.795.795,0,1,0,.795.795A.795.795,0,0,0,6.618,5.83ZM11.387,10.6a.795.795,0,1,0,.795.795A.795.795,0,0,0,11.387,10.6Z" transform="translate(-0.267 -0.264)" fill="#012a47"/>
</svg>
