<svg xmlns="http://www.w3.org/2000/svg" width="20" height="20" viewBox="0 0 20 20">
  <g id="_6afb44c570b8cc0431fcfc8bc23bf29b" data-name="6afb44c570b8cc0431fcfc8bc23bf29b" transform="translate(-39.761 -39.761)">
    <rect id="Rectangle_92" data-name="Rectangle 92" width="20" height="20" transform="translate(39.761 39.761)" fill="none"/>
    <path id="Path_164" data-name="Path 164" d="M12.721,8.832a2.928,2.928,0,1,1-5.856,0,.732.732,0,1,0-1.464,0,4.392,4.392,0,1,0,8.785,0,.732.732,0,1,0-1.464,0Z" transform="translate(39.968 39.302)" fill="#fff" fill-rule="evenodd"/>
    <path id="Path_165" data-name="Path 165" d="M340.764,778.343V789a.9.9,0,0,0,.895.9h5.694a.732.732,0,1,1,0,1.463h-5.694A2.358,2.358,0,0,1,339.3,789V777.611a.732.732,0,0,1,.732-.732h14.641a.732.732,0,0,1,.732.732V782.9a.732.732,0,0,1-1.464,0v-4.556Z" transform="translate(-297.592 -732.73)" fill="#fff" fill-rule="evenodd"/>
    <path id="Path_166" data-name="Path 166" d="M394.128,1168.089l-1.177-2.354a2.359,2.359,0,0,0-2.11-1.3h-9.377a2.359,2.359,0,0,0-2.11,1.3l-1.177,2.354a.732.732,0,0,0,1.31.655l1.177-2.354a.9.9,0,0,1,.8-.495h9.377a.9.9,0,0,1,.8.495l1.177,2.354a.732.732,0,0,0,1.31-.655Z" transform="translate(-336.392 -1123.535)" fill="#fff" fill-rule="evenodd"/>
    <path id="Path_167" data-name="Path 167" d="M42.832,1603.564h4.88a.732.732,0,0,0,0-1.464h-4.88a.732.732,0,0,0,0,1.464Z" transform="translate(10.182 -1547.378)" fill="#fff" fill-rule="evenodd"/>
    <path id="Path_168" data-name="Path 168" d="M1.768,3.174,3.69,5.094A.734.734,0,1,1,2.655,6.135L.215,3.695a.738.738,0,0,1,0-1.041L2.655.213A.734.734,0,1,1,3.69,1.255Z" transform="translate(58.627 58.629) rotate(180)" fill="#fff" fill-rule="evenodd"/>
  </g>
</svg>
