<svg xmlns="http://www.w3.org/2000/svg" width="32" height="32" viewBox="0 0 32 32">
  <g id="Group_144" data-name="Group 144" transform="translate(-135 -535)">
    <g id="Ellipse_14" data-name="Ellipse 14" transform="translate(135 535)" fill="none" stroke="#272b2d" stroke-width="1" opacity="0">
      <circle cx="16" cy="16" r="16" stroke="none"/>
      <circle cx="16" cy="16" r="15.5" fill="none"/>
    </g>
    <g id="_99d7b0be487e5ddab42cc2eab13adac6" data-name="99d7b0be487e5ddab42cc2eab13adac6" transform="translate(137.785 537.785)">
      <path id="Path_36" data-name="Path 36" d="M0,0H26.43V26.43H0Z" fill="none"/>
      <g id="_31e5a714167084f6bb1fd1cddddf61a9" data-name="31e5a714167084f6bb1fd1cddddf61a9" transform="translate(-1.793 -8.717)">
        <path id="Path_199" data-name="Path 199" d="M4.165,17.114h6.808a.059.059,0,0,1,.061.061v5.37a.059.059,0,0,0,.061.061h.851a.081.081,0,0,0,0-.043,2.8,2.8,0,0,1-.165-2.31,10.939,10.939,0,0,1,2.388-4.212,2.538,2.538,0,0,1,1.094-.808.293.293,0,0,1,.334.065c.947.543,5.671,2.649,6.921,3.2a1.306,1.306,0,0,1,.217.877,1.863,1.863,0,0,1-.217.521,0,0,0,0,0,0,0s0,0,0,.009,0,.009-.009.017a8.543,8.543,0,0,1,.391.8,7.959,7.959,0,0,1,.7,2.579,7.277,7.277,0,0,1-.009,2.3.064.064,0,0,0,.048.074,3.1,3.1,0,0,1,1.172.551,2.661,2.661,0,0,1,.76,1.077.065.065,0,0,1-.03.083,1.266,1.266,0,0,1-.135.061,38.639,38.639,0,0,0-5.124,2.518.8.8,0,0,1-.4.109q-3.576.007-7.151,0h-.2a.06.06,0,0,0-.061.048c-.026.1-.052.2-.082.3a2.975,2.975,0,0,1-5.753-.156c-.035-.161-.1-.2-.247-.2-.252.009-.5,0-.76,0a.066.066,0,0,1-.065-.061,6.341,6.341,0,0,1,.2-1.884,4.8,4.8,0,0,1,1.485-2.566,3.86,3.86,0,0,1,2.08-.9l.182-.026a.065.065,0,0,0,.052-.052.792.792,0,0,0-.742-.938,2.75,2.75,0,0,0-.378-.017h-4.3a.063.063,0,0,1-.065-.061V17.18C4.1,17.145,4.131,17.114,4.165,17.114Zm13.1,11.957h2.384a.685.685,0,0,0,.334-.087,41.478,41.478,0,0,1,3.869-1.967l.113-.052a.061.061,0,0,0,.013-.1,2.116,2.116,0,0,0-2.6.512.06.06,0,0,1-.083,0c-.213-.178-.43-.36-.677-.564a.061.061,0,0,1,0-.1c.213-.182.413-.365.63-.525a2.762,2.762,0,0,1,1.168-.521.21.21,0,0,0,.2-.2,8.647,8.647,0,0,0-.921-4.976c-.091.026-.187.048-.287.069h0a14.656,14.656,0,0,1,.1,2.392A5.4,5.4,0,0,1,19.614,26.6a4.243,4.243,0,0,1-1.837.942.26.26,0,0,0-.161.156c-.039.1-.234.886-.356,1.363h0A.016.016,0,0,1,17.261,29.072Zm1.459-5.436c-.239.894-.486,1.785-.729,2.679a.065.065,0,0,0,.078.078,4.072,4.072,0,0,0,2.01-1.98,8.63,8.63,0,0,0,.334-3.782h0s0-.009,0-.009h-.065a14.362,14.362,0,0,1-3.591-.725.063.063,0,0,0-.091.026c-.152.3-.3.608-.456.916a.065.065,0,0,0,.026.087c.556.278,1.1.551,1.641.821A1.5,1.5,0,0,1,18.72,23.636ZM15.3,29.067c.313,0,.942-.009.942-.009.109-.426.439-1.732.5-1.967l1-3.673c.122-.439.048-.595-.356-.795-.786-.4-1.572-.786-2.358-1.181-.043-.022-.087-.043-.139-.074a.06.06,0,0,1-.026-.083c.469-.934.929-1.863,1.4-2.809a.066.066,0,0,1,.091-.026c.291.191.569.378.851.564a7.276,7.276,0,0,0,2.036.621c.482,0,.968.022,1.45,0a3.284,3.284,0,0,0,.738-.126.641.641,0,0,0,.408-.36c.017-.039.026-.126-.017-.13-.217-.03-6.309-2.7-6.357-2.731a.065.065,0,0,0-.078,0,2.662,2.662,0,0,0-.3.243,9.539,9.539,0,0,0-2.432,4.3,1.85,1.85,0,0,0-.048.512,1.257,1.257,0,0,0,1.1,1.3c.886.182,1.776.356,2.666.534.043.009.087.017.143.03a.062.062,0,0,1,.048.074c-.317,1.433-.912,4.09-1.29,5.784ZM7.665,30.14a1.963,1.963,0,0,0,3.769,0,.062.062,0,0,0-.061-.069H7.73A.066.066,0,0,0,7.665,30.14Zm1.871-4.516a3.1,3.1,0,0,0-2.679,2.349c-.109.321-.169.656-.256,1.012a.064.064,0,0,0,.056.078c.065,0,.117.009.165.009,1.893,0,5.632,0,7.451,0,.308-1.385.855-3.838,1.116-5.011a.059.059,0,0,0-.048-.074c-.33-.065-.656-.135-.977-.2-.208-.043-.417-.082-.625-.122a3.416,3.416,0,0,0-.517-.052c-.86,0-1.719,0-2.579,0h-.117a.061.061,0,0,0-.061.074c.043.3.087.591.135.877a.151.151,0,0,0,.1.091A4.057,4.057,0,0,1,13.753,27.3c.078.174.139.356.2.538a.082.082,0,0,1,.009.035.065.065,0,0,1-.043.074c-.269.091-.534.178-.812.274a.063.063,0,0,1-.078-.039c-.022-.056-.043-.113-.065-.161a10.588,10.588,0,0,0-.573-1.129A2.756,2.756,0,0,0,9.536,25.624ZM5.155,22.606H9.966a.059.059,0,0,0,.061-.061V18.174a.059.059,0,0,0-.061-.061H8.117a.059.059,0,0,0-.061.061v1.853a.059.059,0,0,1-.061.061H7.127a.059.059,0,0,1-.061-.061V18.178A.059.059,0,0,0,7,18.118H5.168a.059.059,0,0,0-.061.061v4.367H5.094A.059.059,0,0,0,5.155,22.606Zm12.588-6.843a2.232,2.232,0,1,1,2.232-2.236A2.228,2.228,0,0,1,17.743,15.763Zm0-3.469a1.237,1.237,0,1,0,1.242,1.233A1.235,1.235,0,0,0,17.743,12.294Zm4.772,19.2a1.905,1.905,0,0,0,1.329-.161c.977-.486,1.277-1.42.877-2.731l.855-.465a2.915,2.915,0,0,1,.052,2.727,2.846,2.846,0,0,1-2.753,1.667,2.92,2.92,0,0,1-2.649-1.759c.317-.143.608-.269.907-.4A2.014,2.014,0,0,0,22.515,31.5Z" transform="translate(0 0)" fill="#4eb070" stroke="#4eb070" stroke-width="0.5"/>
      </g>
    </g>
  </g>
</svg>
