<svg xmlns="http://www.w3.org/2000/svg" width="20.097" height="17.357" viewBox="0 0 20.097 17.357">
  <path id="_65eb9eeb2654c423bf71c6fe55b716ce" data-name="65eb9eeb2654c423bf71c6fe55b716ce" d="M1,11.635V16.2a.914.914,0,0,0,.914.914h.914a2.741,2.741,0,1,0,5.481,0h5.481a2.741,2.741,0,1,0,5.481,0h.914A.914.914,0,0,0,21.1,16.2V5.241A2.741,2.741,0,0,0,18.357,2.5H10.135A2.741,2.741,0,0,0,7.395,5.241V7.068H5.568a2.741,2.741,0,0,0-2.192,1.1L1.183,11.087a.557.557,0,0,0-.064.128l-.055.1A.914.914,0,0,0,1,11.635Zm14.616,5.481a.914.914,0,1,1,.914.914A.914.914,0,0,1,15.616,17.116ZM9.222,5.241a.914.914,0,0,1,.914-.914h8.222a.914.914,0,0,1,.914.914V15.289h-.713a2.741,2.741,0,0,0-4.056,0H9.222ZM7.395,10.722H3.741l1.1-1.462a.914.914,0,0,1,.731-.365H7.395ZM4.654,17.116a.914.914,0,1,1,.914.914A.914.914,0,0,1,4.654,17.116ZM2.827,12.549H7.395v2.54a2.741,2.741,0,0,0-3.855.2H2.827Z" transform="translate(-1 -2.5)" fill="#002a47"/>
</svg>
