<svg id="d56a83daff855ba754852b04aa0f3926" xmlns="http://www.w3.org/2000/svg" width="31.36" height="32" viewBox="0 0 31.36 32">
  <path id="Path_148" data-name="Path 148" d="M145.91,110.032a13.711,13.711,0,0,0-.338-3.271H130.55V112.7h8.818a7.819,7.819,0,0,1-3.271,5.191l-.03.2,4.75,3.68.329.033a15.644,15.644,0,0,0,4.764-11.769" transform="translate(-114.55 -93.677)" fill="#4285f4"/>
  <path id="Path_149" data-name="Path 149" d="M28.218,169.206a15.25,15.25,0,0,0,10.6-3.876l-5.049-3.911a9.47,9.47,0,0,1-5.547,1.6,9.632,9.632,0,0,1-9.1-6.649l-.188.016-4.939,3.822-.065.18a15.988,15.988,0,0,0,14.293,8.818" transform="translate(-12.218 -137.206)" fill="#34a853"/>
  <path id="Path_150" data-name="Path 150" d="M6.9,81.737a9.85,9.85,0,0,1-.533-3.164,10.351,10.351,0,0,1,.515-3.164L6.871,75.2l-5-3.884-.164.078a15.966,15.966,0,0,0,0,14.364L6.9,81.737" transform="translate(0 -62.572)" fill="#fbbc05"/>
  <path id="Path_151" data-name="Path 151" d="M28.218,6.187A8.868,8.868,0,0,1,34.4,8.569L38.92,4.16A15.372,15.372,0,0,0,28.218,0,15.988,15.988,0,0,0,13.925,8.818L19.1,12.836a9.672,9.672,0,0,1,9.12-6.649" transform="translate(-12.218)" fill="#eb4335"/>
</svg>
