<svg xmlns="http://www.w3.org/2000/svg" width="32" height="32" viewBox="0 0 32 32">
  <g id="Group_142" data-name="Group 142" transform="translate(-135 -463)">
    <g id="Ellipse_13" data-name="Ellipse 13" transform="translate(135 463)" fill="none" stroke="#272b2d" stroke-width="1" opacity="0">
      <circle cx="16" cy="16" r="16" stroke="none"/>
      <circle cx="16" cy="16" r="15.5" fill="none"/>
    </g>
    <g id="_0318d0fe7eae14c511ecbb289afce242" data-name="0318d0fe7eae14c511ecbb289afce242" transform="translate(139.711 466.583)">
      <path id="_623b4ea0676646a5665bfa774504e621" data-name="623b4ea0676646a5665bfa774504e621" d="M14.4,11.964l0,0c-.056-.024-.111-.052-.168-.074a5.339,5.339,0,0,0,2.045-4.2,4.716,4.716,0,0,0-.04-.562.843.843,0,0,0,.034-.109l.251-2.137a2.68,2.68,0,0,0-2.177-2.944l-.7-.127a15.1,15.1,0,0,0-5.424,0l-.705.127A2.68,2.68,0,0,0,5.329,4.882l.25,2.137a.843.843,0,0,0,.035.109,4.717,4.717,0,0,0-.04.562,5.339,5.339,0,0,0,2.045,4.2c-.057.022-.111.05-.168.074l0,0a8.87,8.87,0,0,0-5.381,7.219.892.892,0,1,0,1.773.193A7.086,7.086,0,0,1,7.6,13.863l2.7,2.7a.892.892,0,0,0,1.261,0l2.7-2.7a7.086,7.086,0,0,1,3.759,5.514.892.892,0,0,0,.884.8.935.935,0,0,0,.1-.005.892.892,0,0,0,.79-.983A8.87,8.87,0,0,0,14.4,11.964ZM7.1,4.673a.893.893,0,0,1,.726-.981l.7-.127a13.311,13.311,0,0,1,4.786,0l.7.127a.893.893,0,0,1,.726.981l-.159,1.35H7.258Zm3.823,9.995L9.451,13.2a7,7,0,0,1,2.942,0Zm0-3.411a3.571,3.571,0,0,1-3.565-3.45h7.129a3.571,3.571,0,0,1-3.565,3.45Z" transform="translate(0.367 0.661)" fill="#4eb070"/>
    </g>
  </g>
</svg>
