<svg xmlns="http://www.w3.org/2000/svg" width="32" height="32" viewBox="0 0 32 32">
  <g id="Group_144" data-name="Group 144" transform="translate(-135 -535)">
    <g id="Ellipse_14" data-name="Ellipse 14" transform="translate(135 535)" fill="none" stroke="#272b2d" stroke-width="1" opacity="0">
      <circle cx="16" cy="16" r="16" stroke="none"/>
      <circle cx="16" cy="16" r="15.5" fill="none"/>
    </g>
    <path id="Path_198" data-name="Path 198" d="M2,9.99v-4A3.92,3.92,0,0,1,5.151,2.149h0A7.646,7.646,0,0,1,6.652,2h0a7.638,7.638,0,0,1,1.583.166l.736.156a21.2,21.2,0,0,0,4.366.458h.033a2.318,2.318,0,0,1,1.285.389h0a2.318,2.318,0,0,0,1.285.389h0a2.069,2.069,0,0,1,1.462.606l.475.475a2.959,2.959,0,0,1,.866,2.091h0a.722.722,0,0,0,.722.722h0a.722.722,0,0,0,.646-.4l.447-.9a1.887,1.887,0,0,1,1.687-1.042h0a1.886,1.886,0,0,0,1.334-.552l.374-.374a.826.826,0,0,1,.584-.242h0a.826.826,0,0,1,.826.826h0a2.706,2.706,0,0,1-.793,1.914l-2.05,2.05a2.263,2.263,0,0,0-.662,1.6h0a2.263,2.263,0,0,1-1.251,2.025l-.475.237a1.1,1.1,0,0,0-.611.986V13.6a1.129,1.129,0,0,0,.331.8l.985.985a.826.826,0,0,1,.242.584v.022a.8.8,0,0,1-.8.8h-.019a1.767,1.767,0,0,1-1.253-.517l-.917-.918a3.076,3.076,0,0,0-2.177-.9h0a3.088,3.088,0,0,0-2.373,1.112l-.641.769a1.267,1.267,0,0,1-.973.456h0a1.265,1.265,0,0,1-.953-.432l-.846-.967A5.025,5.025,0,0,0,6.34,13.682h0a5.024,5.024,0,0,1-2.926-.94h0A3.385,3.385,0,0,1,2,9.99Z" transform="translate(137.318 541.601)" fill="none" stroke="#4eb070" stroke-width="1.7"/>
  </g>
</svg>
